<?xml version="1.0" encoding="utf-8"?>
<!-- Generator: Adobe Illustrator 26.0.2, SVG Export Plug-In . SVG Version: 6.00 Build 0)  -->
<svg version="1.1" id="Layer_1" xmlns="http://www.w3.org/2000/svg" xmlns:xlink="http://www.w3.org/1999/xlink" x="0px" y="0px"
	 viewBox="0 0 400 400" style="enable-background:new 0 0 400 400;" xml:space="preserve">
<style type="text/css">
	.st0{fill:#FFFFFF;}
</style>
<g>
	<path class="st0" d="M289.1,293.2c0,49-39.7,88.7-88.7,88.7c-49,0-88.7-39.7-88.7-88.7c0-49,39.7-88.7,88.7-88.7
		C249.4,204.5,289.1,244.2,289.1,293.2z"/>
	<path class="st0" d="M252.7,142.8c0,28.9-23.4,52.3-52.3,52.3s-52.3-23.4-52.3-52.3s23.4-52.3,52.3-52.3S252.7,113.9,252.7,142.8z"
		/>
	<path class="st0" d="M232.2,49.3c0,17.6-14.3,31.8-31.8,31.8s-31.8-14.3-31.8-31.8s14.2-31.8,31.8-31.8S232.2,31.7,232.2,49.3z"/>
</g>
</svg>
